<?xml version="1.0" encoding="utf-8"?>
<!-- Generator: Adobe Illustrator 14.0.0, SVG Export Plug-In  -->
<!DOCTYPE svg PUBLIC "-//W3C//DTD SVG 1.1//EN" "http://www.w3.org/Graphics/SVG/1.1/DTD/svg11.dtd" [
	<!ENTITY ns_flows "http://ns.adobe.com/Flows/1.0/">
]>
<svg version="1.1"
	 xmlns="http://www.w3.org/2000/svg" xmlns:xlink="http://www.w3.org/1999/xlink" xmlns:a="http://ns.adobe.com/AdobeSVGViewerExtensions/3.0/"
	 x="0px" y="0px" width="623px" height="196px" viewBox="-2.523 -5.811 623 196" enable-background="new -2.523 -5.811 623 196"
	 xml:space="preserve">
<defs>
</defs>
<path fill="#0A50B4" d="M208.707,126.107c-0.248,0.744-0.873,0.871-1.369,0.871h-0.248c-1.748-0.127-10.334-2.244-17.434-2.244
	c-4.982,0-9.588,0.752-12.826,2.988c-2.484,1.871-3.982,4.736-3.982,7.725c0,3.488,1.621,5.352,4.23,6.598
	c2.738,1.248,6.477,1.74,10.213,2.238c6.1,0.877,12.455,1.621,16.434,5.234c2.496,2.365,3.986,5.85,3.986,11.205
	c0,5.479-1.621,11.078-5.355,15.314c-5.475,6.352-14.568,8.215-24.281,8.215c-10.953,0-20.166-3.482-21.787-4.107
	c-0.371-0.25-0.996-0.498-0.996-1.246c0-0.121,0.121-0.373,0.121-0.621l1.996-5.477c0.252-0.623,0.625-1.125,1.496-1.125
	c0.248,0,0.373,0,0.621,0.125c1.121,0.25,9.586,3.363,19.422,3.363c6.104,0,10.834-1.244,13.824-3.986
	c2.113-2.117,2.984-4.729,2.984-7.719c0-2.861-0.744-4.854-2.365-6.1c-2.736-1.992-7.467-2.365-12.699-3.236
	c-3.488-0.498-9.344-1.125-13.822-4.234c-3.234-2.244-5.727-5.729-5.727-11.703c0-5.977,2.113-11.83,6.475-15.812
	c5.848-5.352,14.691-6.723,21.791-6.723c10.586,0,18.426,2.236,19.92,2.611c0.871,0.25,1.119,0.748,1.119,1.369v0.371
	L208.707,126.107z"/>
<path fill="#0A50B4" d="M260.495,124.613c-0.121,0.996-0.996,1.742-2.118,1.742H238.33l-4.975,40.711
	c-0.125,0.75-0.125,1.367-0.125,2.117c0,2.119,0.621,3.613,1.865,4.482c1.617,1.244,3.859,1.621,7.1,1.621
	c3.73,0,8.586-0.998,11.078-1.494c0.121,0,0.248-0.127,0.369-0.127c0.631,0,1.127,0.498,1.252,1.244l0.496,5.234v0.123
	c0,0.75-0.496,1.369-1.244,1.619c-2.613,0.869-8.221,2.365-15.561,2.365c-6.227,0-10.834-1.244-13.574-4.107
	c-2.238-2.244-3.363-5.355-3.363-9.592c0-1.238,0-2.613,0.125-4.107l8.34-67.359c0.129-1.246,0.873-1.615,1.865-1.869l8.348-1.864
	h0.373c0.869,0,1.248,0.62,1.248,1.366v0.379l-2.496,20.291h20.048c0.996,0,1.621,0.621,1.621,1.621v0.248L260.495,124.613z"/>
<path fill="#0A50B4" d="M325.239,158.724c-1.623,13.082-6.23,25.527-31.004,25.527c-10.336,0-16.939-1.994-20.793-6.102
	c-2.994-3.107-4.238-7.348-4.238-12.945c0-1.998,0.131-4.109,0.375-6.348l4.859-39.598c0.123-1.121,0.871-1.619,1.865-1.867
	l8.344-1.742h0.373c0.871,0,1.123,0.623,1.123,1.371v0.371l-5.23,42.457c-0.123,1.615-0.252,2.984-0.252,4.484
	c0,3.605,1,6.346,3.117,8.215c2.234,1.996,5.973,2.986,11.574,2.986c14.82,0,17.182-7.225,18.182-15.936l4.975-40.217
	c0.127-1.244,0.752-1.742,1.869-1.871l8.221-1.861h0.496c0.875,0,1.123,0.623,1.123,1.371v0.371L325.239,158.724z"/>
<path fill="#0A50B4" d="M403.296,90.709h-0.377l-8.215,1.863c-1.121,0.132-1.869,0.624-1.994,1.744l-2.236,16.476l0.371,7.225
	c-3.609-0.873-9.713-2.367-18.306-2.367c-16.557,0-25.152,5.977-29.508,18.676c-2.732,7.59-4.232,18.924-4.232,27.139
	c0,7.596,1.744,13.08,5.475,16.812c4.234,4.111,11.086,5.975,21.418,5.975c9.465,0,15.317-1.496,19.796-2.488
	c8.096-1.994,8.469-5.727,9.092-10.088l9.961-79.225v-0.37C404.541,91.328,404.162,90.709,403.296,90.709z M382.878,173.294
	c0,0-7.226,2.121-15.69,2.121c-5.605,0-9.84-0.498-12.701-3.238c-2.365-2.24-3.609-6.23-3.609-12.83
	c0-6.971,0.992-15.064,2.984-21.664c3.486-10.953,9.342-13.193,19.303-13.193c8.218,0,15.437,1.99,15.437,1.99L382.878,173.294z"/>
<path fill="#0A50B4" d="M424.083,182.388c-0.252,1.117-0.996,1.863-2.117,1.863h-7.848c-0.992,0-1.617-0.621-1.617-1.619v-0.244
	l7.6-61.385c0.125-1.123,0.992-1.873,2.113-1.873h7.719c0.998,0,1.625,0.627,1.625,1.623v0.25L424.083,182.388z"/>
<path fill="#0A50B4" d="M433.419,106.314c-0.248,1.369-1.119,2.111-2.361,2.111h-7.348c-1.119,0-1.865-0.619-1.865-1.74v-0.371
	l1.738-13.577c0.127-1.368,0.996-2.114,2.365-2.114h7.223c1.248,0,1.869,0.621,1.869,1.744v0.37L433.419,106.314z"/>
<path fill="#EE0000" d="M501.019,182.199c-0.377,1.141-1.266,2.029-2.535,2.029h-35.475c-1.137,0-1.777-0.889-1.902-2.029
	L445.54,93.697v-0.253c0-1.135,1.643-2.787,2.275-2.787h21.649c1.773,0,2.779,0.376,3.035,2.537l8.984,74.059h2.316l26.211-74.059
	c0.754-2.284,1.898-2.537,3.672-2.537h21.646c0.629,0,1.643,1.138,1.643,2.161c0,0.119,0,0.25-0.125,0.5L501.019,182.199z"/>
<path fill="#EE0000" d="M616.103,106.25c-0.133,1.27-0.506,1.898-1.146,2.662l-52.1,57.412l45.451,0.047
	c1.137,0.012,1.898,0.637,1.898,1.531c0,0.125-0.008,0.254-0.129,0.254l-1.67,14.174c-0.125,1.143-1.141,1.898-2.275,1.898
	l-77.828-0.098c-1.137,0-1.9-0.75-1.9-1.648v-0.252l4.672-12.654c0.689-1.871,1.236-3.051,1.996-3.807l51.246-57.279l-41.867-0.047
	c-1.133,0-1.891-0.641-1.891-1.527l0.002-0.375l5.602-14.046c0.58-1.245,1.443-1.896,2.713-1.896l67.119,0.082
	c1.137,0,1.896,0.758,1.896,1.652v0.248L616.103,106.25z"/>
<path fill="#EE0000" d="M107.71,64.295c5.184-6.852,9.588-15.424,9.043-16.02c-0.543-0.578-11.252,0.906-20.01,3.371
	c-1.439-6.699-4.859-13.791-5.771-13.813c-0.91-0.011-8.342,6.792-13.521,13.177c-6.715-2.868-15.436-4.834-16.219-4.319
	c-0.785,0.519-1.545,8.694-0.703,15.421c-8.289,2.45-17.742,6.718-18.02,7.514c-0.27,0.792,6.016,6.022,12.512,9.413
	c-5.371,6.804-10.354,15.612-9.914,16.279c0.438,0.659,10.758-0.437,19.537-2.739c1.111,7.64,4.357,16.341,5.326,16.441
	c0.975,0.102,9.168-7.598,14.783-14.812c7.521,3.763,17.764,6.718,18.664,6.132c0.896-0.592,1.084-10.404-0.414-18.122
	c9.256-2.569,19.832-7.2,20.043-8.069C123.242,73.268,115.269,67.686,107.71,64.295z"/>
<path fill="#0A50B4" d="M179.89,77.339c0.342-2.069-20.129-15.036-38.488-22.583c11.223-15.354,20.215-34.102,18.852-35.323
	c-1.344-1.199-25.559,2.624-44.91,8.332C111.779,13.973,104.072-0.049,102.136,0c-1.932,0.044-17.553,14.206-28.541,27.49
	c-13.922-5.455-31.602-8.831-33.232-7.762c-1.625,1.07-3.836,17.553-2.691,31.426C20.4,56.474,0.701,65.561,0.027,67.241
	c-0.674,1.669,11.342,12.907,24.451,20.443C12.316,102.791,0.49,122.787,1.314,124.359c0.818,1.58,23.154-0.303,42.656-5.223
	c1.881,18.504,8.691,40.59,10.936,40.945c2.258,0.363,21.643-18.289,34.797-35.723c17.998,9.908,43.318,18.381,45.48,16.941
	c2.178-1.432,1.514-26.24-2.949-45.091C154.314,90.316,179.546,79.416,179.89,77.339z M124.279,74.211
	c-1.318,5.561,6.732,21.266,6.732,21.266s-21.258,1.992-26.916,5.718c-5.676,3.725-14.521,21.527-14.521,21.527
	s-13.725-11.98-19.93-12.604c-6.107-0.625-24.707,7.582-24.707,7.582s1.943-17.502-0.836-21.724
	c-2.729-4.135-18.352-8.758-18.352-8.758s13.982-12.623,15.727-17.652c1.732-4.968-2.939-17.875-2.939-17.875
	s17.205-2.398,22.172-5.652c4.965-3.261,12.959-17.367,12.959-17.367s11.875,8.158,17.576,8.254
	c5.77,0.097,23.277-7.939,23.277-7.939s-0.188,14.961,3.236,18.633c3.482,3.75,22.217,7.655,22.217,7.655
	S125.582,68.732,124.279,74.211z"/>
</svg>
